<mxfile host="65bd71144e">
    <diagram id="vNryzHvHkTAKQzD66Nnn" name="Page-1">
        <mxGraphModel dx="618" dy="435" grid="1" gridSize="10" guides="1" tooltips="1" connect="1" arrows="1" fold="1" page="1" pageScale="1" pageWidth="850" pageHeight="1100" background="none" math="0" shadow="0">
            <root>
                <mxCell id="0"/>
                <mxCell id="1" parent="0"/>
                <mxCell id="3" value="M" style="rounded=1;whiteSpace=wrap;html=1;fillColor=light-dark(#FFFFFF,#9933FF);strokeColor=default;gradientColor=light-dark(#D5739D,#B266FF);fontSize=150;fontFamily=Comic Sans MS;align=center;spacingTop=0;labelBackgroundColor=none;labelBorderColor=none;textShadow=0;fontColor=light-dark(#000000,#FFFFFF);glass=0;shadow=0;strokeWidth=2;" vertex="1" parent="1">
                    <mxGeometry x="155" y="90" width="160" height="170" as="geometry"/>
                </mxCell>
            </root>
        </mxGraphModel>
    </diagram>
</mxfile>